<mxfile host="app.diagrams.net" modified="2023-10-19T01:43:15.870Z" agent="Mozilla/5.0 (Windows NT 10.0; Win64; x64) AppleWebKit/537.36 (KHTML, like Gecko) Chrome/118.0.0.0 Safari/537.36 Edg/118.0.2088.46" etag="rWpTVzhx4jmNNG_sDDUu" version="22.0.4" type="github">
  <diagram id="S3J1xWgmt-nfTZVy-8rn" name="Page-1">
    <mxGraphModel dx="1188" dy="661" grid="1" gridSize="10" guides="1" tooltips="1" connect="1" arrows="1" fold="1" page="1" pageScale="1" pageWidth="827" pageHeight="1169" math="0" shadow="0">
      <root>
        <mxCell id="0" />
        <mxCell id="1" parent="0" />
      </root>
    </mxGraphModel>
  </diagram>
</mxfile>
